<?xml version="1.0" encoding="UTF-8" standalone="no"?>
<svg
   viewBox="0 0 374.99877 175.34664"
   fill="#2d8cff"
   class="header-logo"
   version="1.1"
   id="svg4"
   sodipodi:docname="image.svg"
   width="374.99878"
   height="175.34665"
   inkscape:version="1.1.1 (3bf5ae0d25, 2021-09-20)"
   xmlns:inkscape="http://www.inkscape.org/namespaces/inkscape"
   xmlns:sodipodi="http://sodipodi.sourceforge.net/DTD/sodipodi-0.dtd"
   xmlns="http://www.w3.org/2000/svg"
   xmlns:svg="http://www.w3.org/2000/svg">
  <defs
     id="defs8" />
  <sodipodi:namedview
     id="namedview6"
     pagecolor="#505050"
     bordercolor="#ffffff"
     borderopacity="1"
     inkscape:pageshadow="0"
     inkscape:pageopacity="0"
     inkscape:pagecheckerboard="1"
     showgrid="false"
     inkscape:zoom="1.3440044"
     inkscape:cx="269.34436"
     inkscape:cy="155.13342"
     inkscape:window-width="1366"
     inkscape:window-height="715"
     inkscape:window-x="-8"
     inkscape:window-y="-8"
     inkscape:window-maximized="1"
     inkscape:current-layer="svg4" />
  <g
     id="g21"
     transform="matrix(1.3890619,0,0,1.3890619,160.67942,116.41232)">
    <path
       opacity="0.2"
       fill="#000000"
       d="m 20.200999,5.169 c -8.254,0 -14.9459995,6.692 -14.9459995,14.946 0,8.255 6.6919995,14.946 14.9459995,14.946 8.254,0 14.946,-6.691 14.946,-14.946 -10e-4,-8.254 -6.692,-14.946 -14.946,-14.946 z m 0,26.58 c -6.425,0 -11.6339995,-5.208 -11.6339995,-11.634 0,-6.425 5.2089995,-11.634 11.6339995,-11.634 6.425,0 11.633,5.209 11.633,11.634 0,6.426 -5.208,11.634 -11.633,11.634 z"
       id="path10"
       style="fill:#262626;fill-opacity:1" />
    <path
       fill="#000000"
       d="m 26.012999,10.047 1.654,-2.866 c -2.198,-1.272 -4.743,-2.012 -7.466,-2.012 v 0 3.312 0 c 2.119,0 4.1,0.576 5.812,1.566 z"
       id="path12"
       style="fill:#262626;fill-opacity:1">
      <animateTransform
         attributeType="xml"
         attributeName="transform"
         type="rotate"
         from="0 20 20"
         to="360 20 20"
         dur="0.5s"
         repeatCount="indefinite" />
    </path>
  </g>
  <path
     style="fill:#262626;stroke-width:0.412461"
     d="m 42.21731,14.708571 c -6.686143,2.798716 -14.036433,10.70547 -16.357896,20.63014 -2.939951,12.57495 9.294557,17.892502 10.298036,16.148942 1.181087,-2.048704 -2.192279,-2.741518 -2.886661,-9.265974 -0.897436,-8.426894 3.020217,-17.843005 7.950713,-21.974527 0.916491,-0.767592 0.872894,0.300774 0.872894,2.276926 0,3.533809 -0.19526,35.257097 -0.19526,41.877783 0,8.958605 -0.37002,11.787563 -1.034579,14.582946 -0.673346,2.832835 -1.755854,4.74695 -0.93559,5.484267 0.916451,0.824762 4.829361,-1.137035 7.094605,-4.298602 2.716355,-3.791811 3.667205,-8.345562 3.837923,-13.290867 0.20619,-5.961405 0.197404,-15.420909 0.20619,-20.81654 0.0083,-4.948602 0.08335,-19.439193 -0.08676,-28.150407 -0.0417,-2.136674 -5.967468,-4.378367 -8.763965,-3.206696 M 279.64174,56.6342 c -0.21557,4.657363 -1.24654,8.297717 -2.52602,10.865461 -2.47704,4.970999 -7.61698,6.514559 -9.79932,-0.631439 -1.18929,-3.895298 -1.24486,-10.400822 -0.38982,-15.83659 0.87039,-5.537518 3.30069,-9.719598 7.32501,-9.342444 3.96934,0.372825 5.82724,5.487486 5.39015,14.944805 z m -66.91609,28.89544 c -0.0539,7.738501 -1.27179,14.52355 -3.88355,16.49422 -3.70428,2.79431 -8.68312,0.69825 -7.65217,-4.948607 0.91221,-4.996943 5.22627,-10.100096 11.54619,-16.335335 0,0 0.0132,1.421924 -0.0102,4.789722 z m -1.01169,-28.940523 c -0.22652,4.241931 -1.32623,8.503331 -2.52601,10.911122 -2.4765,4.970959 -7.65382,6.524994 -9.79933,-0.631439 -1.46696,-4.88958 -1.11563,-11.217953 -0.38982,-15.205398 0.94186,-5.173519 3.22484,-9.973101 7.325,-9.973101 3.98639,0 5.9521,4.373465 5.39016,14.899146 z m -38.76461,-0.06487 c -0.24302,4.492625 -1.11945,8.248222 -2.52596,10.976002 -2.54469,4.936764 -7.57904,6.502431 -9.79933,-0.63144 -1.6006,-5.144069 -1.05569,-12.158164 -0.38986,-15.94717 0.9881,-5.622691 3.46238,-9.609061 7.32506,-9.231328 3.96767,0.387633 5.89652,5.486907 5.39009,14.834265 z m 177.64922,5.247597 c -0.96996,0 -1.41256,0.999767 -1.77875,2.682657 -1.27015,5.851443 -2.60513,7.172683 -4.32673,7.172683 -1.92334,0 -3.65152,-2.897385 -4.09579,-8.697434 -0.34917,-4.560682 -0.29304,-12.957064 0.15341,-21.309228 0.0912,-1.716049 -0.38215,-3.413951 -4.9849,-5.086034 -1.98057,-0.719211 -4.85956,-1.778206 -6.29299,1.681981 -4.05013,9.775653 -5.63481,17.536719 -6.0076,20.689543 -0.0193,0.163164 -0.21939,0.196498 -0.25457,-0.184746 -0.23752,-2.525179 -0.76866,-7.113912 -0.83466,-16.754855 -0.0135,-1.881036 -0.41126,-3.482176 -2.48747,-4.793023 -1.34716,-0.850581 -5.438,-2.35495 -6.91102,-0.565238 -1.27622,1.463706 -2.75417,5.402766 -4.2899,10.072048 -1.24811,3.795029 -2.11743,6.362278 -2.11743,6.362278 0,0 0.0174,-10.239756 0.0313,-14.123874 0.006,-1.465317 -0.99853,-1.95359 -1.30148,-2.042104 -1.36419,-0.395924 -4.05184,-1.057349 -5.19275,-1.057349 -1.40761,0 -1.75234,0.786814 -1.75234,1.933254 0,0.150103 -0.22216,13.481631 -0.22216,22.803663 0,0.404912 0,0.846701 0.003,1.316002 -0.77856,4.284496 -3.30345,10.100632 -6.04939,10.100632 -2.74923,0 -4.04629,-2.431549 -4.04629,-13.54486 0,-6.483215 0.19463,-9.302274 0.29034,-13.991315 0.0555,-2.700847 0.16268,-4.774874 0.15669,-5.245534 -0.0203,-1.443331 -2.51607,-2.170791 -3.67734,-2.439634 -1.16678,-0.271113 -2.1807,-0.376126 -2.97247,-0.331044 -1.12059,0.06324 -1.91345,0.798404 -1.91345,1.809556 0,0.542142 0.006,1.573092 0.006,1.573092 -1.44332,-2.268091 -3.76474,-3.846708 -5.30931,-4.304168 -4.16009,-1.235489 -8.50114,-0.14077 -11.77543,4.441106 -2.60243,3.640518 -4.1711,7.763784 -4.7886,13.687821 -0.45139,4.330904 -0.30406,8.722721 0.49817,12.436906 -0.96935,4.191033 -2.76901,5.908074 -4.73963,5.908074 -2.86085,0 -4.93488,-4.669572 -4.69405,-12.745384 0.15882,-5.311781 1.22176,-9.039453 2.38359,-14.43232 0.49541,-2.298901 0.0929,-3.502508 -0.91661,-4.656084 -0.92595,-1.057883 -2.89875,-1.598376 -5.73489,-0.933608 -2.02012,0.473959 -4.90843,0.98364 -7.55099,1.37515 0,0 0.1594,-0.636183 0.29034,-1.757834 0.68728,-5.882247 -5.70465,-5.40498 -7.74404,-3.526181 -1.21735,1.121689 -2.04597,2.444621 -2.36048,4.823253 -0.4987,3.774692 2.57987,5.555088 2.57987,5.555088 -1.01007,4.623623 -3.48601,10.663648 -6.04225,15.030513 -1.36908,2.339653 -2.41653,4.073358 -3.76862,5.916324 -0.005,-0.686256 -0.009,-1.372429 -0.0113,-2.055467 -0.031,-9.720717 0.0985,-17.371239 0.15559,-20.128717 0.0556,-2.700807 0.16388,-4.719852 0.15781,-5.190512 -0.0152,-1.055699 -0.63177,-1.454344 -1.91399,-1.959114 -1.13378,-0.446451 -2.47432,-0.755468 -3.86486,-0.863245 -1.75511,-0.136888 -2.81245,0.793991 -2.78499,1.894771 0.006,0.20784 0.006,1.484042 0.006,1.484042 -1.44337,-2.268134 -3.7648,-3.84671 -5.30931,-4.304208 -4.16013,-1.234956 -8.50114,-0.140193 -11.77547,4.441102 -2.60186,3.640519 -4.30582,8.749117 -4.78861,13.64274 -0.44975,4.56089 -0.36672,8.436804 0.24637,11.701775 -0.66147,3.269427 -2.56338,6.68833 -4.71383,6.68833 -2.74923,0 -4.31354,-2.431593 -4.31354,-13.544861 0,-6.483216 0.19464,-9.302275 0.29033,-13.99082 0.0555,-2.700807 0.16276,-4.775369 0.15669,-5.245494 -0.0202,-1.443331 -2.5161,-2.17079 -3.67735,-2.440211 -1.21516,-0.280971 -2.26425,-0.384333 -3.06979,-0.324979 -1.06284,0.0792 -1.81009,1.030991 -1.81009,1.74084 v 1.635786 c -1.44333,-2.268134 -3.76476,-3.84671 -5.3093,-4.304208 -4.16011,-1.234956 -8.47695,-0.122591 -11.77545,4.441102 -2.15099,2.975753 -3.89236,6.274837 -4.7886,13.57786 -0.25899,2.110452 -0.37336,4.086726 -0.35851,5.933938 -0.85777,5.245659 -4.64619,11.291577 -7.7451,11.291577 -1.8134,0 -3.54046,-3.517275 -3.54046,-11.013372 0,-9.985187 0.61803,-24.201945 0.7225,-25.572151 0,0 3.91543,-0.06647 4.6737,-0.07532 1.95301,-0.02144 3.72191,0.02473 6.32318,-0.10833 1.30478,-0.06659 2.56172,-4.749017 1.21516,-5.328523 -0.61033,-0.262285 -4.92385,-0.492115 -6.63384,-0.528403 -1.43785,-0.03256 -5.44071,-0.328815 -5.44071,-0.328815 0,0 0.35904,-9.436449 0.44261,-10.433294 0.0709,-0.830821 -1.00401,-1.258585 -1.62041,-1.518147 -1.49884,-0.633955 -2.83993,-0.937484 -4.42952,-1.265187 -2.19611,-0.453048 -3.19241,-0.01021 -3.38705,1.843626 -0.29306,2.813032 -0.44485,11.052435 -0.44485,11.052435 -1.61157,0 -7.11663,-0.315043 -8.72874,-0.315043 -1.49778,0 -3.11434,6.441434 -1.04361,6.520578 2.38247,0.09245 6.53436,0.172126 9.28685,0.255149 0,0 -0.12259,14.451003 -0.12259,18.912448 0,0.474662 0.005,0.931754 0.005,1.375274 -1.51486,7.895776 -6.85052,12.160888 -6.85052,12.160888 1.14586,-5.22351 -1.19483,-9.146111 -5.41101,-12.466605 -1.55334,-1.22361 -4.61983,-3.540084 -8.05086,-6.078544 0,0 1.98716,-1.958539 3.74941,-5.898711 1.24869,-2.791011 1.3026,-5.985081 -1.76225,-6.689399 -5.06409,-1.164596 -9.23957,2.554543 -10.48501,6.524991 -0.96495,3.075816 -0.45028,5.35822 1.44008,7.729137 0.13801,0.17323 0.28756,0.350263 0.44207,0.528407 -1.14314,2.203334 -2.7135,5.169764 -4.043575,7.470196 -3.691664,6.386985 -6.480448,11.43895 -8.588007,11.43895 -1.684745,0 -1.662184,-5.129054 -1.662184,-9.931275 0,-4.139931 0.305718,-10.364035 0.549854,-16.808187 0.0808,-2.131193 -0.984795,-3.345278 -2.771211,-4.444945 -1.085397,-0.668065 -3.401909,-1.981635 -4.743528,-1.981635 -2.008114,0 -7.801729,0.273256 -13.275975,16.108235 -0.689885,1.995865 -2.045196,5.632592 -2.045196,5.632592 l 0.115889,-19.042212 c 0,-0.446449 -0.237785,-0.878093 -0.782237,-1.173374 -0.922472,-0.500895 -3.386275,-1.525246 -5.577072,-1.525246 -1.043817,0 -1.564717,0.48551 -1.564717,1.45323 l -0.191102,29.791687 c 0,2.263593 0.05902,4.904303 0.282824,6.059281 0.222978,1.156422 0.584215,2.097166 1.031612,2.656879 0.446739,0.558639 0.963512,0.984795 1.815537,1.160668 0.793002,0.16326 5.135283,0.720862 5.360983,-0.938558 0.270411,-1.988688 0.280763,-4.139721 2.560898,-12.162038 3.549694,-12.489703 8.177855,-18.583633 10.353554,-20.747825 0.380415,-0.378269 0.814778,-0.40083 0.793868,0.218277 -0.09289,2.738256 -0.419516,9.580518 -0.6394,15.393482 -0.589369,15.556193 2.240579,18.439553 6.284734,18.439553 3.093965,0 7.455345,-3.074206 12.13065,-10.856098 2.914751,-4.849572 5.744781,-9.604688 7.778101,-13.031887 1.41697,1.311715 3.0071,2.723497 4.59615,4.231666 3.69274,3.504819 4.90517,6.835124 4.10074,9.994506 -0.61527,2.415256 -2.93232,4.904345 -7.05616,2.485047 -1.20196,-0.705808 -1.71498,-1.251124 -2.92354,-2.046846 -0.64933,-0.427477 -1.64073,-0.555258 -2.23509,-0.107446 -1.54397,1.164134 -2.42701,2.644834 -2.9312,4.478024 -0.490465,1.783777 1.29595,2.726708 3.14783,3.551469 1.59454,0.709847 5.02173,1.353084 7.20737,1.426337 8.51599,0.284805 15.33791,-4.111799 20.0869,-15.452829 0.85008,9.794377 4.46803,15.336804 10.75388,15.336804 4.20246,0 8.41589,-5.432051 10.25845,-10.775834 0.52893,2.178297 1.31191,4.072533 2.32307,5.674371 4.84359,7.674197 14.23986,6.022449 18.95975,-0.494171 1.45929,-2.013602 1.68141,-2.737184 1.68141,-2.737184 0.6884,6.153282 5.6436,8.303203 8.4808,8.303203 3.17758,0 6.45846,-1.502191 8.7579,-6.678967 0.26947,0.561815 0.5636,1.098347 0.88474,1.606955 4.84354,7.674198 14.23986,6.022449 18.95971,-0.494171 0.22269,-0.305676 0.41567,-0.582976 0.5845,-0.831856 l 0.13855,4.041763 c 0,0 -2.6926,2.470033 -4.34542,3.985298 -7.27444,6.674014 -12.80585,11.737531 -13.21274,17.634055 -0.52235,7.518573 5.57542,10.312883 10.1886,10.679073 4.89911,0.38879 9.09444,-2.31751 11.6732,-6.10495 2.26809,-3.333642 3.7527,-10.508596 3.64381,-17.594991 -0.0434,-2.837701 -0.11492,-6.445842 -0.17101,-10.313422 2.55678,-2.969153 5.43742,-6.721863 8.0899,-11.114547 2.89054,-4.787082 5.98834,-11.215731 7.57462,-16.21878 0,0 2.69152,0.02311 5.56387,-0.164942 0.91879,-0.05993 1.18273,0.127536 1.01285,0.801127 -0.20514,0.813748 -3.62898,14.01994 -0.50424,22.817437 2.13891,6.02245 6.9605,7.960076 9.81913,7.960076 3.34634,0 6.54756,-2.527117 8.26305,-6.279744 0.20673,0.41836 0.42281,0.823193 0.6587,1.196925 4.8436,7.674199 14.20692,6.012551 18.95977,-0.49417 1.07272,-1.468038 1.68139,-2.737186 1.68139,-2.737186 1.01998,6.368301 5.97242,8.335622 8.80905,8.335622 2.95489,0 5.7591,-1.211362 8.03437,-6.594822 0.0951,2.37034 0.24466,4.308542 0.48109,4.919605 0.14413,0.373692 0.98368,0.842827 1.59454,1.069392 2.70304,1.002367 5.45998,0.528365 6.47992,0.322175 0.70654,-0.142993 1.25751,-0.709848 1.33283,-2.173596 0.19793,-3.843367 0.0764,-10.3008 1.24154,-15.099844 1.95583,-8.054121 3.7802,-11.178319 4.64565,-12.725013 0.48441,-0.866585 1.03095,-1.009542 1.05076,-0.09239 0.0407,1.855709 0.13311,7.305249 0.89075,14.62696 0.55641,5.384866 1.29984,8.567675 1.8711,9.57499 1.6303,2.880639 3.64382,3.017041 5.28348,3.017041 1.04302,0 3.22426,-0.288228 3.02909,-2.121378 -0.0951,-0.893518 0.0715,-6.41561 1.99977,-14.3504 1.25914,-5.18169 3.35844,-9.863677 4.11559,-11.575316 0.27932,-0.631232 0.40908,-0.133641 0.40468,-0.03671 -0.1594,3.568504 -0.5174,15.240623 0.93636,21.624307 1.97067,8.647939 7.67145,9.615661 9.65803,9.615661 4.24093,0 7.70937,-3.226036 8.8778,-11.714434 0.2815,-2.042764 -0.13525,-3.620102 -1.38396,-3.620102"
     id="path824" />
</svg>
